{
	"asset":{
		"generator":"Khronos glTF Blender I/O v3.5.30",
		"version":"2.0"
	},
	"scene":0,
	"scenes":[
		{
			"name":"Scene",
			"nodes":[
				0,
				1,
				2
			]
		}
	],
	"nodes":[
		{
			"mesh":0,
			"name":"lens",
			"rotation":[
				0.7071068286895752,
				0,
				0,
				0.7071068286895752
			],
			"translation":[
				-0.10585641860961914,
				0.010346829891204834,
				-0.08433973789215088
			]
		},
		{
			"mesh":1,
			"name":"minima",
			"rotation":[
				0.7071068286895752,
				0,
				0,
				0.7071068286895752
			],
			"translation":[
				-0.10585641860961914,
				0.010346829891204834,
				-0.08433973789215088
			]
		},
		{
			"mesh":2,
			"name":"Text",
			"rotation":[
				0.7071068286895752,
				0,
				0,
				0.7071068286895752
			],
			"translation":[
				-0.10585641860961914,
				0.010346829891204834,
				-0.08433973789215088
			]
		}
	],
	"materials":[
		{
			"doubleSided":true,
			"name":"Material.003",
			"pbrMetallicRoughness":{}
		},
		{
			"doubleSided":true,
			"name":"Material.004",
			"pbrMetallicRoughness":{}
		}
	],
	"meshes":[
		{
			"name":"Text.032",
			"primitives":[
				{
					"attributes":{
						"POSITION":0,
						"TEXCOORD_0":1,
						"NORMAL":2
					},
					"indices":3,
					"material":0
				}
			]
		},
		{
			"name":"Text",
			"primitives":[
				{
					"attributes":{
						"POSITION":4,
						"TEXCOORD_0":5,
						"NORMAL":6
					},
					"indices":7,
					"material":1
				}
			]
		},
		{
			"name":"Text",
			"primitives":[
				{
					"attributes":{
						"POSITION":8,
						"TEXCOORD_0":9,
						"NORMAL":10
					},
					"indices":11
				}
			]
		}
	],
	"accessors":[
		{
			"bufferView":0,
			"componentType":5126,
			"count":11876,
			"max":[
				6.804965496063232,
				0.09999999403953552,
				0.035749681293964386
			],
			"min":[
				4.194732189178467,
				-0.09999999403953552,
				-0.807379961013794
			],
			"type":"VEC3"
		},
		{
			"bufferView":1,
			"componentType":5126,
			"count":11876,
			"type":"VEC2"
		},
		{
			"bufferView":2,
			"componentType":5126,
			"count":11876,
			"type":"VEC3"
		},
		{
			"bufferView":3,
			"componentType":5123,
			"count":60732,
			"type":"SCALAR"
		},
		{
			"bufferView":4,
			"componentType":5126,
			"count":17340,
			"max":[
				4.114375591278076,
				0.09999999403953552,
				0.03575030714273453
			],
			"min":[
				0.020493829622864723,
				-0.09999999403953552,
				-0.8501260280609131
			],
			"type":"VEC3"
		},
		{
			"bufferView":5,
			"componentType":5126,
			"count":17340,
			"type":"VEC2"
		},
		{
			"bufferView":6,
			"componentType":5126,
			"count":17340,
			"type":"VEC3"
		},
		{
			"bufferView":7,
			"componentType":5123,
			"count":88476,
			"type":"SCALAR"
		},
		{
			"bufferView":8,
			"componentType":5126,
			"count":29216,
			"max":[
				6.804965496063232,
				0.09999999403953552,
				0.03575030714273453
			],
			"min":[
				0.020493829622864723,
				-0.09999999403953552,
				-0.8501260280609131
			],
			"type":"VEC3"
		},
		{
			"bufferView":9,
			"componentType":5126,
			"count":29216,
			"type":"VEC2"
		},
		{
			"bufferView":10,
			"componentType":5126,
			"count":29216,
			"type":"VEC3"
		},
		{
			"bufferView":11,
			"componentType":5123,
			"count":149208,
			"type":"SCALAR"
		}
	],
	"bufferViews":[
		{
			"buffer":0,
			"byteLength":142512,
			"byteOffset":0,
			"target":34962
		},
		{
			"buffer":0,
			"byteLength":95008,
			"byteOffset":142512,
			"target":34962
		},
		{
			"buffer":0,
			"byteLength":142512,
			"byteOffset":237520,
			"target":34962
		},
		{
			"buffer":0,
			"byteLength":121464,
			"byteOffset":380032,
			"target":34963
		},
		{
			"buffer":0,
			"byteLength":208080,
			"byteOffset":501496,
			"target":34962
		},
		{
			"buffer":0,
			"byteLength":138720,
			"byteOffset":709576,
			"target":34962
		},
		{
			"buffer":0,
			"byteLength":208080,
			"byteOffset":848296,
			"target":34962
		},
		{
			"buffer":0,
			"byteLength":176952,
			"byteOffset":1056376,
			"target":34963
		},
		{
			"buffer":0,
			"byteLength":350592,
			"byteOffset":1233328,
			"target":34962
		},
		{
			"buffer":0,
			"byteLength":233728,
			"byteOffset":1583920,
			"target":34962
		},
		{
			"buffer":0,
			"byteLength":350592,
			"byteOffset":1817648,
			"target":34962
		},
		{
			"buffer":0,
			"byteLength":298416,
			"byteOffset":2168240,
			"target":34963
		}
	],
	"buffers":[
		{
			"byteLength":2466656,
			"uri":"logo.bin"
		}
	]
}
